<svg xmlns="http://www.w3.org/2000/svg" viewBox="0 0 146.1 60"><path fill="#83D0F5" d="M52.5 30H45c0-4.2-1.7-7.9-4.4-10.7l5.3-5.3c4.1 4.1 6.6 9.8 6.6 16z"/><path fill="#966097" d="M60 30h-7.5c0-6.2-2.5-11.9-6.6-15.9l5.3-5.3C56.6 14.2 60 21.7 60 30z"/><path fill="#B4E1FA" d="M45.9 14.1l-5.3 5.3c-2.7-2.7-6.5-4.4-10.7-4.4V7.5c6.3 0 12 2.5 16 6.6z"/><path fill="#7E3D80" d="M51.2 8.8l-5.3 5.3c-4-4.1-9.7-6.6-15.9-6.6V0c8.3 0 15.8 3.4 21.2 8.8z"/><path fill="#EBAFB6" d="M30 7.5V15c-4.2 0-7.9 1.7-10.7 4.4L14 14.1c4.1-4.1 9.8-6.6 16-6.6z"/><path fill="#E84E0F" d="M30 0v7.5c-6.2 0-11.9 2.5-15.9 6.6L8.8 8.8C14.2 3.4 21.7 0 30 0z"/><path fill="#E18290" d="M14.1 14.1l5.3 5.3c-2.7 2.7-4.4 6.5-4.4 10.7H7.5c0-6.3 2.5-12 6.6-16z"/><path fill="#EE763B" d="M8.8 8.8l5.3 5.3c-4.1 4-6.6 9.7-6.6 15.9H0c0-8.3 3.4-15.8 8.8-21.2z"/><path fill="#D7506E" d="M7.5 30H15c0 4.2 1.7 7.9 4.4 10.7L14.1 46c-4.1-4.1-6.6-9.8-6.6-16z"/><path fill="#F49C6A" d="M0 30h7.5c0 6.2 2.5 11.9 6.6 15.9l-5.3 5.3C3.4 45.8 0 38.3 0 30z"/><path fill="#CF1153" d="M14.1 45.9l5.3-5.3c2.7 2.7 6.5 4.4 10.7 4.4v7.5c-6.3 0-12-2.5-16-6.6z"/><path fill="#F9BF9C" d="M8.8 51.2l5.3-5.3c4.1 4.1 9.7 6.6 15.9 6.6V60c-8.3 0-15.8-3.4-21.2-8.8z"/><path fill="#00AEEA" d="M30 52.5V45c4.2 0 7.9-1.7 10.7-4.4l5.3 5.3c-4.1 4.1-9.8 6.6-16 6.6z"/><path fill="#C8AFCC" d="M30 60v-7.5c6.2 0 11.9-2.5 15.9-6.6l5.3 5.3C45.8 56.6 38.3 60 30 60z"/><path fill="#37BFF0" d="M45.9 45.9l-5.3-5.3c2.7-2.7 4.4-6.5 4.4-10.7h7.5c0 6.3-2.5 12-6.6 16z"/><path fill="#AE87B1" d="M51.2 51.2l-5.3-5.3c4.1-4.1 6.6-9.7 6.6-15.9H60c0 8.3-3.4 15.8-8.8 21.2z"/><g fill="#1D1D1B"><path d="M84.4 40V20h-3.7v7.9h-7.1V20H70v20h3.6v-8.4h7.1V40h3.7z"/><path fill-rule="evenodd" clip-rule="evenodd" d="M102.8 34.6v-9.3c0-3-2.4-5.3-5.3-5.3h-3.7c-3 0-5.3 2.4-5.3 5.3v9.3c0 3 2.4 5.3 5.3 5.3h3.7c2.9.1 5.3-2.3 5.3-5.3zm-3.6.2c0 .8-.7 1.5-1.5 1.5h-4c-.8 0-1.5-.7-1.5-1.5v-9.7c0-.8.7-1.5 1.5-1.5h4c.8 0 1.5.7 1.5 1.5v9.7z"/><path d="M119.4 40v-3.6h-8.8V20h-3.7v20h12.5zM133.8 20h-3.5s0 2.2-.1 2.5c-.3 1.1-3.6 11.9-3.6 11.9s-3.3-11-3.6-11.9c-.1-.4-.1-2.5-.1-2.5h-3.5c0 3 .1 2.8.3 3.7.6 2.2 5.1 16.3 5.1 16.3h3.5l5.1-16.3c.3-.9.4-.7.4-3.7zM146.1 40v-3.6h-2.9V23.6h2.9V20h-9.3v3.6h2.8v12.8h-2.8V40h9.3z"/></g></svg>